<?xml version="1.0" standalone="no"?>
<!DOCTYPE svg PUBLIC "-//W3C//DTD SVG 20010904//EN"
 "http://www.w3.org/TR/2001/REC-SVG-20010904/DTD/svg10.dtd">
<svg version="1.0" xmlns="http://www.w3.org/2000/svg"
 width="1119.000000pt" height="1122.000000pt" viewBox="0 0 1119.000000 1122.000000"
 preserveAspectRatio="xMidYMid meet">

<g transform="translate(0.000000,1122.000000) scale(0.100000,-0.100000)"
fill="#818793" stroke="none">
<path d="M5535 11072 c-22 -8 -89 -34 -150 -58 -443 -170 -714 -290 -1145
-506 -329 -165 -384 -194 -655 -351 -564 -328 -1108 -708 -1612 -1129 -574
-479 -1191 -1102 -1721 -1737 -120 -142 -162 -200 -162 -220 0 -60 41 -648 55
-786 60 -608 149 -1132 291 -1715 25 -102 51 -205 58 -230 8 -25 24 -81 36
-125 251 -908 640 -1835 1152 -2743 217 -385 499 -838 526 -846 78 -23 499
-131 627 -160 88 -20 180 -42 205 -47 339 -78 903 -167 1355 -214 693 -72
1612 -72 2305 0 561 58 1001 130 1635 265 82 18 475 114 617 151 33 8 46 25
155 192 706 1077 1239 2264 1555 3462 218 824 343 1611 413 2593 l16 224 -48
61 c-268 345 -645 770 -983 1107 -992 992 -2111 1771 -3448 2398 -308 145
-995 434 -1026 431 -6 -1 -29 -8 -51 -17z m210 -182 c243 -96 541 -224 790
-338 103 -47 609 -300 700 -350 260 -141 300 -164 550 -315 601 -363 1184
-797 1725 -1281 148 -133 629 -608 755 -746 219 -239 501 -566 590 -684 17
-22 45 -56 62 -75 29 -32 33 -42 33 -96 0 -104 -46 -665 -70 -855 -89 -711
-179 -1199 -321 -1750 -175 -679 -403 -1320 -696 -1955 -61 -132 -267 -546
-315 -635 -213 -387 -349 -616 -561 -941 -41 -64 -80 -120 -85 -123 -5 -3 -99
-28 -209 -56 -491 -122 -1028 -229 -1463 -289 -1069 -150 -2088 -160 -3130
-30 -563 69 -1132 185 -1782 361 -20 6 -43 18 -51 27 -25 28 -241 379 -364
591 -190 325 -264 464 -442 820 -303 608 -584 1314 -746 1875 -15 50 -37 126
-50 171 -27 92 -119 447 -139 538 -34 155 -97 456 -105 506 -72 429 -97 588
-111 720 -6 52 -13 109 -15 125 -11 67 -45 462 -55 640 -5 105 -12 216 -14
247 l-4 58 111 132 c116 140 342 402 412 478 384 419 747 780 1061 1055 361
317 673 563 1054 830 163 115 501 333 643 416 32 19 66 39 75 44 293 174 659
367 991 522 280 131 809 351 1001 416 20 7 35 2 175 -53z"/>
<path d="M5495 10764 c-297 -114 -473 -186 -581 -235 -22 -11 -43 -19 -47 -19
-4 0 -49 -20 -99 -43 -51 -24 -122 -57 -158 -72 -115 -50 -600 -299 -770 -395
-910 -512 -1682 -1100 -2440 -1859 -343 -343 -368 -370 -672 -716 -39 -45
-194 -228 -272 -323 l-69 -84 17 -296 c29 -507 74 -890 167 -1422 20 -112 25
-138 69 -345 44 -208 98 -424 161 -650 12 -44 28 -102 35 -130 8 -27 18 -61
23 -75 5 -14 19 -59 32 -100 36 -123 108 -335 166 -495 51 -140 65 -177 127
-337 24 -62 79 -194 96 -233 5 -11 23 -54 41 -95 17 -41 54 -122 80 -179 27
-57 49 -105 49 -107 0 -6 192 -394 263 -529 141 -270 383 -684 569 -974 67
-105 100 -147 118 -152 864 -246 1631 -377 2560 -438 136 -9 1131 -6 1270 4
488 35 982 97 1405 176 88 16 183 34 210 39 141 26 494 106 750 172 88 22 171
43 184 46 30 6 224 298 441 662 207 346 521 969 646 1278 19 46 45 110 58 141
23 52 82 202 139 351 225 590 425 1334 546 2030 19 107 27 156 66 415 38 255
86 729 106 1057 l12 187 -124 153 c-783 969 -1625 1737 -2606 2381 -224 146
-576 359 -753 454 -161 87 -241 129 -400 210 -174 88 -375 184 -480 230 -30
13 -74 33 -97 44 -102 46 -134 60 -228 100 -169 71 -512 209 -517 208 -2 0
-43 -16 -93 -35z m197 -215 c413 -164 794 -336 1178 -532 129 -65 240 -122
245 -127 6 -4 51 -29 100 -55 111 -59 352 -200 460 -268 44 -27 102 -64 130
-81 27 -17 137 -90 245 -161 890 -593 1700 -1337 2423 -2223 133 -162 124
-135 107 -342 -26 -314 -40 -474 -50 -560 -20 -179 -51 -415 -65 -505 -30
-193 -67 -412 -75 -450 -5 -22 -18 -89 -30 -150 -88 -469 -268 -1116 -440
-1585 -17 -47 -39 -107 -49 -135 -28 -76 -90 -233 -116 -295 -13 -30 -43 -100
-66 -155 -23 -55 -63 -147 -90 -203 -27 -57 -49 -106 -49 -108 0 -18 -292
-586 -390 -759 -13 -22 -34 -60 -48 -85 -67 -121 -228 -381 -403 -652 -28 -45
-58 -54 -409 -137 -353 -82 -558 -123 -990 -196 -176 -30 -594 -82 -755 -95
-66 -5 -174 -13 -240 -19 -66 -6 -267 -15 -446 -21 -332 -11 -814 -2 -1084 21
-66 5 -172 14 -235 19 -169 14 -582 67 -745 95 -242 42 -326 58 -385 70 -236
48 -515 112 -640 145 -41 12 -102 28 -135 37 -127 33 -150 43 -166 71 -9 15
-38 61 -64 102 -127 201 -395 652 -395 665 0 2 -15 30 -34 62 -71 124 -256
485 -344 673 -22 47 -54 117 -72 155 -55 117 -148 337 -206 485 -32 81 -91
234 -109 280 -174 457 -370 1159 -464 1665 -12 61 -25 133 -31 160 -17 89 -51
298 -59 370 -5 39 -16 120 -24 180 -33 232 -73 671 -83 905 l-7 145 84 100
c46 54 111 131 143 169 335 398 854 929 1236 1264 546 479 1011 819 1635 1195
190 115 215 129 420 240 271 147 751 374 1053 498 128 53 378 151 429 168 2 1
49 -17 105 -40z"/>
<path d="M4896 8939 c5 -7 30 -45 55 -84 102 -154 180 -348 221 -554 31 -153
31 -440 -1 -591 -54 -260 -175 -513 -339 -708 -34 -41 -62 -75 -62 -75 0 -1
95 -2 210 -2 116 0 210 3 210 7 0 4 27 47 60 96 120 179 175 332 205 562 19
141 19 214 1 355 -41 326 -174 599 -426 877 -52 58 -151 144 -134 117z"/>
<path d="M5453 8635 c139 -277 194 -473 218 -768 23 -293 -25 -612 -130 -854
-17 -40 -31 -74 -31 -77 0 -3 74 -6 165 -8 159 -3 165 -2 165 17 0 11 14 63
30 115 39 122 60 285 60 458 -1 417 -137 792 -396 1086 -39 44 -86 95 -104
111 -31 29 -31 27 23 -80z"/>
<path d="M3805 8554 c-169 -26 -356 -156 -432 -299 -32 -61 -63 -184 -63 -250
0 -65 31 -189 63 -250 44 -84 166 -204 248 -243 241 -114 509 -73 689 108 162
162 206 393 115 605 -57 131 -194 255 -338 305 -62 21 -215 34 -282 24z"/>
<path d="M5880 8558 c0 -3 20 -40 44 -81 180 -304 278 -771 247 -1170 -7 -84
-21 -188 -31 -232 -10 -44 -20 -95 -22 -113 l-3 -33 142 -2 143 -2 5 25 c61
287 37 635 -61 905 -14 39 -30 84 -36 100 -26 70 -124 247 -186 334 -60 85
-240 286 -242 269z"/>
<path d="M6493 8195 c127 -255 175 -402 217 -677 17 -106 20 -176 20 -362 l-1
-231 148 -2 148 -2 7 37 c25 134 -9 422 -72 612 -82 243 -237 488 -403 631
-39 35 -83 72 -96 83 -18 17 -11 -3 32 -89z"/>
<path d="M6979 8172 c5 -9 29 -51 53 -92 171 -290 260 -611 274 -990 l7 -180
-131 0 -132 0 0 -34 c0 -52 -45 -250 -80 -356 -146 -434 -504 -855 -985 -1157
-169 -107 -461 -218 -665 -255 -112 -20 -383 -17 -500 5 -186 35 -372 105
-501 187 -27 18 -48 35 -45 37 2 2 84 -3 182 -11 369 -33 598 -15 889 69 297
86 558 229 799 441 292 255 496 610 556 964 6 36 13 75 15 88 l5 22 -155 0
c-146 0 -155 -1 -155 -19 0 -30 -65 -210 -114 -313 -164 -349 -497 -675 -891
-871 -167 -83 -286 -127 -456 -166 -388 -90 -754 -56 -1070 99 -95 46 -186
108 -223 149 -19 21 -19 21 0 21 10 0 57 -9 104 -21 213 -51 574 -69 800 -41
455 58 868 243 1164 522 141 133 296 371 355 547 33 98 40 93 -109 93 -108 0
-130 -3 -130 -15 0 -8 -20 -52 -44 -99 -133 -253 -339 -477 -591 -642 -566
-368 -1302 -406 -1782 -91 -90 59 -143 106 -121 107 9 0 60 -9 115 -21 522
-109 1059 -40 1466 188 33 18 61 33 63 33 2 0 44 28 94 61 171 116 367 316
431 441 l19 38 -151 0 -151 0 -102 -104 c-156 -159 -306 -270 -506 -374 -466
-242 -970 -255 -1304 -33 -35 23 -136 121 -136 131 0 4 62 -6 138 -23 130 -29
148 -31 357 -31 191 -1 233 2 320 21 200 44 384 118 529 213 84 55 199 144
229 177 17 20 17 21 -10 25 -15 2 -502 2 -1080 0 l-1053 -4 0 -2594 0 -2594
2985 0 2985 0 0 2338 c0 1286 3 2454 7 2595 l6 257 -143 0 -142 0 6 -32 c31
-153 31 -385 1 -583 -99 -652 -507 -1266 -1095 -1648 -206 -133 -432 -230
-680 -290 -310 -76 -700 -59 -990 42 -164 58 -307 124 -407 190 -56 36 -68 55
-30 46 59 -14 184 -38 302 -57 179 -30 554 -32 725 -5 226 37 393 89 585 182
477 233 882 669 1074 1155 113 288 171 598 171 921 l0 89 154 0 154 0 -9 39
c-32 144 -131 362 -232 512 -93 139 -308 363 -395 413 -7 4 8 -25 34 -64 143
-221 258 -564 278 -827 l6 -83 -143 0 -144 0 -6 -197 c-14 -543 -182 -936
-572 -1342 -322 -335 -687 -537 -1115 -618 -134 -25 -476 -25 -610 0 -170 31
-348 86 -500 155 -105 47 -103 47 222 44 559 -7 871 45 1193 197 316 150 548
355 748 661 177 272 293 639 314 987 3 56 10 108 14 115 6 10 42 13 144 13
l136 0 -7 70 c-16 176 -81 404 -169 590 -88 188 -218 377 -359 523 -76 79
-107 102 -87 64z m-2889 -4366 c76 -50 76 -142 1 -192 -32 -21 -52 -26 -115
-27 l-75 -1 -3 -71 -3 -70 -50 0 -50 0 -3 192 -2 192 27 4 c16 3 75 4 132 2
90 -4 109 -7 141 -29z m437 5 c25 -12 55 -39 70 -63 24 -35 28 -52 27 -108 0
-80 -21 -121 -83 -165 -37 -26 -53 -30 -121 -34 -93 -4 -152 18 -193 73 -68
89 -52 224 35 285 67 46 188 52 265 12z m1868 20 l29 -6 -79 -69 c-44 -38 -81
-72 -83 -76 -1 -4 33 -53 78 -110 44 -56 80 -108 80 -116 0 -10 -15 -14 -59
-14 l-58 0 -60 89 -60 89 -32 -28 c-28 -26 -31 -34 -31 -89 l0 -61 -50 0 -50
0 0 195 0 195 50 0 50 0 0 -76 0 -76 83 74 c45 41 89 78 97 81 19 7 57 6 95
-2z m-1605 -156 l0 -155 110 0 110 0 0 -40 0 -40 -159 0 -158 0 -7 77 c-3 42
-6 129 -6 195 l0 118 55 0 55 0 0 -155z m370 -40 l0 -195 -50 0 -50 0 0 164
c0 90 -3 178 -6 195 l-6 31 56 0 56 0 0 -195z m398 158 l-3 -38 -62 -3 -63 -3
0 -154 0 -155 -50 0 -50 0 0 155 0 155 -65 0 -65 0 0 40 0 40 181 0 180 0 -3
-37z m392 3 l0 -34 -64 -7 c-35 -4 -89 -5 -120 -4 l-56 4 0 -32 0 -33 110 0
110 0 0 -40 0 -40 -110 0 -110 0 0 -45 0 -45 118 0 c65 0 121 -2 123 -5 3 -2
3 -20 1 -40 l-4 -35 -172 2 -171 3 -3 193 -2 192 175 0 175 0 0 -34z m695 -81
l80 -115 3 115 3 115 50 0 49 0 -2 -192 -3 -193 -50 -3 -50 -3 -80 113 -80
113 -3 -112 -3 -113 -49 0 -50 0 0 195 0 195 53 0 52 -1 80 -114z m365 -80 l0
-195 -55 0 -55 0 0 188 c0 104 3 192 7 195 3 4 28 7 55 7 l48 0 0 -195z m170
119 l0 -76 84 76 84 76 68 0 69 0 -83 -78 -83 -77 81 -104 c44 -57 80 -110 80
-117 0 -10 -15 -14 -57 -14 l-58 1 -58 84 c-32 47 -61 85 -65 85 -4 0 -18 -9
-31 -19 -21 -16 -26 -30 -29 -85 l-4 -66 -49 0 -49 0 0 53 c0 28 -3 116 -7
195 l-6 142 56 0 57 0 0 -76z m-2210 -519 c40 -20 79 -63 80 -86 0 -37 -80
-40 -122 -4 -54 45 -144 31 -171 -28 -30 -62 -14 -142 32 -167 31 -16 136 -13
151 5 17 20 12 24 -41 33 -43 7 -44 8 -44 47 l0 40 103 3 103 3 -3 -88 -3 -88
-60 -24 c-151 -60 -294 -22 -346 93 -52 115 8 234 141 277 38 13 142 4 180
-16z m-998 -96 l83 -112 3 112 3 111 49 0 50 0 0 -196 0 -195 -52 3 -53 3 -80
108 -80 108 -3 -111 -3 -110 -49 0 -50 0 0 195 0 195 50 0 50 0 82 -111z m608
71 l0 -40 -120 0 -120 0 0 -32 c0 -30 3 -33 32 -33 18 -1 68 -2 111 -3 l77 -2
0 -40 0 -40 -110 0 -110 0 0 -40 0 -40 125 0 125 0 0 -40 0 -40 -177 2 c-98 2
-177 6 -175 11 1 4 2 90 2 192 l0 185 170 0 170 0 0 -40z m890 0 l0 -40 -120
0 -120 0 0 -32 0 -33 110 3 110 3 0 -45 0 -46 -110 0 -110 0 0 -40 0 -39 123
-3 122 -3 3 -37 3 -38 -175 0 -176 0 0 195 0 195 170 0 170 0 0 -40z m361 29
c49 -16 79 -56 79 -104 0 -44 -20 -73 -63 -95 l-27 -14 28 -30 c29 -31 82
-100 96 -123 5 -10 -8 -13 -56 -13 l-63 1 -34 50 c-45 66 -86 99 -122 99 l-29
0 0 -75 0 -75 -50 0 -50 0 0 195 0 195 129 0 c70 0 143 -5 162 -11z m254 -184
l0 -190 -52 -3 -53 -3 0 196 0 196 53 -3 52 -3 0 -190z m-1733 -396 c13 -5 31
-27 40 -47 10 -20 49 -104 88 -186 38 -81 70 -150 70 -152 0 -2 -25 -4 -56 -4
l-56 0 -15 40 c-19 47 -33 52 -123 48 l-65 -3 -23 -42 c-23 -42 -25 -43 -73
-43 -27 0 -49 4 -49 9 0 5 34 82 75 171 41 89 75 165 75 170 0 14 51 50 71 50
10 0 28 -5 41 -11z m626 -4 c2 -2 -31 -33 -72 -71 -42 -37 -76 -71 -76 -76 0
-11 134 -193 148 -202 5 -3 20 18 32 47 12 28 41 90 63 137 22 47 48 104 58
128 l18 42 56 0 56 0 40 -87 c23 -49 63 -135 90 -192 27 -57 49 -106 49 -107
0 -2 -24 -4 -54 -4 -54 0 -55 1 -78 43 l-23 42 -82 3 -81 3 -18 -46 -19 -45
-110 0 -111 0 -32 53 c-18 28 -45 68 -61 87 l-29 35 -26 -24 c-21 -19 -26 -34
-28 -85 l-3 -61 -52 -3 -53 -3 0 195 0 196 55 0 54 0 3 -71 3 -71 71 66 c40
36 82 70 95 75 20 8 106 5 117 -4z m731 5 c98 -13 131 -41 131 -111 0 -40 -4
-51 -31 -73 -17 -14 -37 -26 -45 -26 -20 0 -17 -10 10 -34 38 -35 106 -127
100 -137 -3 -5 -28 -9 -55 -9 -55 0 -72 13 -130 96 -16 24 -42 47 -60 53 -58
20 -59 18 -59 -69 l0 -80 -50 0 -50 0 0 194 c0 194 0 195 23 199 41 8 141 6
216 -3z m-1651 -147 c-3 -122 -7 -153 -22 -179 -27 -46 -68 -66 -135 -67 -72
0 -116 28 -133 86 -14 45 -4 57 49 57 26 0 36 -6 48 -30 12 -23 22 -30 44 -30
17 0 31 6 35 16 3 9 6 78 6 155 l0 139 56 0 56 0 -4 -147z m2192 113 l0 -34
-65 -7 -65 -7 0 -154 0 -154 -55 0 -55 0 0 155 0 154 -62 3 -63 3 -3 38 -3 37
185 0 186 0 0 -34z m266 -43 c20 -43 46 -100 59 -128 42 -88 75 -167 75 -176
0 -5 -24 -9 -53 -9 -52 0 -53 1 -66 38 -8 20 -19 40 -25 44 -6 4 -45 8 -87 8
l-76 0 -19 -42 c-18 -42 -20 -43 -71 -46 -30 -2 -53 1 -53 7 0 11 84 200 136
309 l36 72 54 0 55 0 35 -77z"/>
<path d="M3900 3710 l0 -50 39 0 c64 0 91 15 91 49 0 26 -5 31 -37 40 -21 6
-50 11 -65 11 -27 0 -28 -2 -28 -50z"/>
<path d="M4340 3738 c-39 -27 -53 -65 -44 -126 9 -58 49 -92 111 -92 38 0 50
5 79 34 30 30 34 40 34 86 0 46 -4 56 -34 86 -42 42 -95 46 -146 12z"/>
<path d="M5640 3130 l0 -40 68 0 c72 0 92 10 92 46 0 25 -31 34 -111 34 l-49
0 0 -40z"/>
<path d="M4295 2502 c-11 -25 -21 -50 -23 -54 -2 -4 16 -8 41 -8 l45 0 -13 33
c-30 82 -28 81 -50 29z"/>
<path d="M5182 2494 c-12 -26 -20 -49 -18 -51 2 -2 22 -3 45 -1 l41 3 -23 48
-22 48 -23 -47z"/>
<path d="M5576 2559 c-3 -17 -6 -35 -6 -40 0 -5 36 -9 80 -9 l80 0 0 30 c0 37
-27 50 -99 50 -46 0 -49 -1 -55 -31z"/>
<path d="M6402 2496 c-12 -27 -20 -51 -18 -53 2 -2 22 -3 44 -1 l39 3 -22 50
-22 50 -21 -49z"/>
</g>
</svg>
